<svg width="64" height="72" viewBox="0 0 64 72" fill="none" xmlns="http://www.w3.org/2000/svg">
<path d="M46.6667 18.0832V19.0832H47.6667H59.4167C60.2176 19.0832 60.9697 19.375 61.5112 19.8705C62.0498 20.3633 62.3334 21.0115 62.3334 21.6665V61.0832C62.3334 63.6389 61.2245 66.11 59.2169 67.9468C57.2063 69.7862 54.4618 70.8332 51.5834 70.8332H12.4167C9.53839 70.8332 6.79385 69.7862 4.78326 67.9468C2.77564 66.11 1.66675 63.6389 1.66675 61.0832V21.6665C1.66675 21.0115 1.95035 20.3633 2.48893 19.8705C3.03048 19.375 3.78258 19.0832 4.58341 19.0832H16.3334H17.3334V18.0832V14.4998C17.3334 10.9938 18.855 7.61121 21.5971 5.10245C24.3422 2.59097 28.083 1.1665 32.0001 1.1665C35.9172 1.1665 39.658 2.59097 42.4031 5.10245C45.1452 7.61121 46.6667 10.9938 46.6667 14.4998V18.0832ZM39.8334 19.0832H40.8334V18.0832V14.4998C40.8334 12.3037 39.8791 10.2177 38.2141 8.69443C36.5521 7.17388 34.3155 6.33317 32.0001 6.33317C29.6846 6.33317 27.4481 7.17388 25.7861 8.69443C24.1211 10.2177 23.1667 12.3037 23.1667 14.4998V18.0832V19.0832H24.1667H39.8334ZM8.50008 24.2498H7.50008V25.2498V61.0832C7.50008 62.3289 8.04178 63.5035 8.97223 64.3548C9.89972 65.2033 11.1401 65.6665 12.4167 65.6665H51.5834C52.8601 65.6665 54.1005 65.2033 55.0279 64.3548C55.9584 63.5035 56.5001 62.3289 56.5001 61.0832V25.2498V24.2498H55.5001H47.6667H46.6667V25.2498V28.8332C46.6667 29.4882 46.3831 30.1364 45.8446 30.6292C45.303 31.1246 44.5509 31.4165 43.7501 31.4165C42.9492 31.4165 42.1971 31.1246 41.6556 30.6292C41.117 30.1364 40.8334 29.4882 40.8334 28.8332V25.2498V24.2498H39.8334H24.1667H23.1667V25.2498V28.8332C23.1667 29.4882 22.8832 30.1364 22.3446 30.6292C21.803 31.1246 21.0509 31.4165 20.2501 31.4165C19.4492 31.4165 18.6971 31.1246 18.1556 30.6292C17.617 30.1364 17.3334 29.4882 17.3334 28.8332V25.2498V24.2498H16.3334H8.50008Z" fill="white" stroke="#212327" stroke-width="2"/>
</svg>
