<svg width="257" height="51" viewBox="0 0 257 51" fill="none" xmlns="http://www.w3.org/2000/svg">
<path d="M11.32 38.2C9.77333 38.2 8.02667 38.0667 6.08 37.8C5.01333 37.6667 4.28 37.3867 3.88 36.96C3.48 36.5333 3.30667 35.84 3.36 34.88C3.54667 32.24 3.98667 28.9867 4.68 25.12C5.37333 21.2267 6.21333 17.48 7.2 13.88C7.38667 13.2133 7.76 12.7467 8.32 12.48C8.88 12.2133 9.61333 12.08 10.52 12.08C12.1467 12.08 12.96 12.5333 12.96 13.44C12.96 13.8133 12.88 14.24 12.72 14.72C12.0267 16.8533 11.3333 19.72 10.64 23.32C9.94667 26.8933 9.45333 30.3067 9.16 33.56C9.96 33.64 10.8667 33.68 11.88 33.68C16.5467 33.68 20.0267 32.2667 22.32 29.44C24.64 26.6133 25.8 22.84 25.8 18.12C25.8 14.9467 24.8933 12.4933 23.08 10.76C21.2667 9.02666 18.7067 8.16 15.4 8.16C13.2667 8.16 11.1467 8.49333 9.04 9.16C6.96 9.82667 5.08 10.7067 3.4 11.8C3.05333 12.04 2.68 12.16 2.28 12.16C1.82667 12.16 1.46667 11.9733 1.2 11.6C0.933333 11.2 0.8 10.72 0.8 10.16C0.8 9.52 0.906667 9 1.12 8.6C1.33333 8.17333 1.69333 7.78666 2.2 7.44C4.04 6.18666 6.2 5.24 8.68 4.6C11.16 3.93333 13.5467 3.6 15.84 3.6C19.0933 3.6 21.9067 4.17333 24.28 5.32C26.6533 6.44 28.48 8.09333 29.76 10.28C31.04 12.4667 31.68 15.1067 31.68 18.2C31.68 22.2267 30.88 25.7467 29.28 28.76C27.68 31.7467 25.3467 34.0667 22.28 35.72C19.2133 37.3733 15.56 38.2 11.32 38.2ZM50.3175 26.8C51.0642 26.8 51.4375 27.36 51.4375 28.48C51.4375 30.5867 49.7842 31.64 46.4775 31.64C45.8375 31.64 44.9175 31.52 43.7175 31.28C44.0642 32.9333 44.3442 34.7733 44.5575 36.8C44.7975 38.8 44.9175 40.4533 44.9175 41.76C44.9175 44.64 44.4508 46.84 43.5175 48.36C42.5842 49.88 41.3575 50.64 39.8375 50.64C37.9175 50.64 36.5442 49.28 35.7175 46.56C34.9175 43.84 34.5175 39.7333 34.5175 34.24C34.5175 29.12 35.0642 23.9333 36.1575 18.68C37.2775 13.4 38.7975 9.04 40.7175 5.6C42.6642 2.13333 44.7975 0.399998 47.1175 0.399998C48.3708 0.399998 49.3442 0.959998 50.0375 2.08C50.7575 3.2 51.1175 4.70666 51.1175 6.6C51.1175 12.8667 47.3708 19.6933 39.8775 27.08C39.6108 29.6933 39.4775 31.9867 39.4775 33.96C39.4775 36.7067 39.5708 39.52 39.7575 42.4C39.9442 45.3067 40.2508 46.76 40.6775 46.76C41.4775 46.76 41.8775 45.3733 41.8775 42.6C41.8775 40.52 41.7308 38.5067 41.4375 36.56C41.1708 34.6133 40.7975 32.56 40.3175 30.4C40.2908 30.0533 40.3975 29.6133 40.6375 29.08C40.9042 28.5467 41.2242 28.08 41.5975 27.68C41.9708 27.28 42.3042 27.08 42.5975 27.08C43.1308 27.08 43.7708 27.1067 44.5175 27.16C44.7575 27.1867 45.0375 27.2 45.3575 27.2C46.4242 27.2 47.6108 27.1067 48.9175 26.92C49.1308 26.8933 49.3575 26.8667 49.5975 26.84C49.8375 26.8133 50.0775 26.8 50.3175 26.8ZM46.2775 4.36C45.7975 4.36 45.1975 5.17333 44.4775 6.8C43.7842 8.42667 43.0908 10.5867 42.3975 13.28C41.7042 15.9467 41.1042 18.7733 40.5975 21.76C42.7308 19.3333 44.3708 16.8133 45.5175 14.2C46.6642 11.56 47.2508 9.09333 47.2775 6.8C47.2775 5.17333 46.9442 4.36 46.2775 4.36ZM68.82 25.72C69.1667 25.72 69.4333 25.8933 69.62 26.24C69.8067 26.5867 69.9 27.0267 69.9 27.56C69.9 28.84 69.5133 29.6 68.74 29.84C67.14 30.4 65.38 30.72 63.46 30.8C62.9533 33.04 61.9533 34.84 60.46 36.2C58.9667 37.5333 57.2733 38.2 55.38 38.2C53.78 38.2 52.4067 37.8133 51.26 37.04C50.14 36.2667 49.2867 35.24 48.7 33.96C48.1133 32.68 47.82 31.2933 47.82 29.8C47.82 27.7733 48.2067 25.9733 48.98 24.4C49.7533 22.8 50.82 21.56 52.18 20.68C53.54 19.7733 55.0467 19.32 56.7 19.32C58.7267 19.32 60.3533 20.0267 61.58 21.44C62.8333 22.8267 63.5667 24.5467 63.78 26.6C65.0333 26.52 66.5267 26.2533 68.26 25.8C68.4733 25.7467 68.66 25.72 68.82 25.72ZM55.7 33.96C56.5533 33.96 57.2867 33.6133 57.9 32.92C58.54 32.2267 58.9667 31.2267 59.18 29.92C58.3533 29.36 57.7133 28.6267 57.26 27.72C56.8333 26.8133 56.62 25.8533 56.62 24.84C56.62 24.4133 56.66 23.9867 56.74 23.56H56.54C55.4733 23.56 54.58 24.08 53.86 25.12C53.1667 26.1333 52.82 27.5733 52.82 29.44C52.82 30.9067 53.1 32.0267 53.66 32.8C54.2467 33.5733 54.9267 33.96 55.7 33.96ZM69.3069 38.2C68.2935 38.2 67.5735 37.6667 67.1469 36.6C66.7469 35.5333 66.5469 33.8267 66.5469 31.48C66.5469 28.0133 67.0402 24.72 68.0269 21.6C68.2669 20.8267 68.6535 20.2667 69.1869 19.92C69.7469 19.5467 70.5202 19.36 71.5069 19.36C72.0402 19.36 72.4135 19.4267 72.6269 19.56C72.8402 19.6933 72.9469 19.9467 72.9469 20.32C72.9469 20.7467 72.7469 21.7067 72.3469 23.2C72.0802 24.2667 71.8669 25.2 71.7069 26C71.5469 26.8 71.4135 27.7867 71.3069 28.96C72.1869 26.6667 73.1735 24.8 74.2669 23.36C75.3602 21.92 76.4269 20.8933 77.4669 20.28C78.5335 19.6667 79.5069 19.36 80.3869 19.36C82.1202 19.36 82.9869 20.2267 82.9869 21.96C82.9869 22.3067 82.8669 23.1467 82.6269 24.48C82.4135 25.5467 82.3069 26.2133 82.3069 26.48C82.3069 27.4133 82.6402 27.88 83.3069 27.88C84.0535 27.88 85.0135 27.2933 86.1869 26.12C86.5335 25.7733 86.8935 25.6 87.2669 25.6C87.6135 25.6 87.8802 25.76 88.0669 26.08C88.2802 26.3733 88.3869 26.7733 88.3869 27.28C88.3869 28.2667 88.1202 29.04 87.5869 29.6C86.8402 30.3733 85.9602 31.04 84.9469 31.6C83.9602 32.1333 82.9069 32.4 81.7869 32.4C80.3735 32.4 79.2935 32.04 78.5469 31.32C77.8269 30.6 77.4669 29.6267 77.4669 28.4C77.4669 28 77.5069 27.6 77.5869 27.2C77.6402 26.6667 77.6669 26.3067 77.6669 26.12C77.6669 25.6933 77.5202 25.48 77.2269 25.48C76.8269 25.48 76.2935 25.9333 75.6269 26.84C74.9869 27.72 74.3469 28.8933 73.7069 30.36C73.0669 31.8267 72.5469 33.3733 72.1469 35C71.8535 36.2533 71.5069 37.1067 71.1069 37.56C70.7335 37.9867 70.1335 38.2 69.3069 38.2ZM117.47 12.4C117.47 14.6667 116.67 16.6267 115.07 18.28C113.47 19.9067 111.137 21.08 108.07 21.8C109.723 22.2533 110.977 23 111.83 24.04C112.683 25.0533 113.11 26.2267 113.11 27.56C113.11 29.6667 112.443 31.4933 111.11 33.04C109.803 34.5867 107.883 35.7867 105.35 36.64C102.817 37.4667 99.7633 37.88 96.19 37.88C94.8567 37.88 93.79 37.84 92.99 37.76C92.9633 38.5067 92.6433 39.0667 92.03 39.44C91.4167 39.8133 90.63 40 89.67 40C88.71 40 88.0433 39.7867 87.67 39.36C87.3233 38.9333 87.1767 38.3067 87.23 37.48C87.47 33.7467 87.9367 29.84 88.63 25.76C89.3233 21.6533 90.2033 17.6933 91.27 13.88C91.4567 13.2133 91.83 12.7467 92.39 12.48C92.95 12.2133 93.6833 12.08 94.59 12.08C96.2167 12.08 97.03 12.5333 97.03 13.44C97.03 13.8133 96.95 14.24 96.79 14.72C96.0967 16.8 95.4033 19.6267 94.71 23.2C94.0167 26.7467 93.5233 30.1333 93.23 33.36C94.51 33.4667 95.55 33.52 96.35 33.52C100.083 33.52 102.817 32.9867 104.55 31.92C106.31 30.8267 107.19 29.44 107.19 27.76C107.19 26.5867 106.683 25.6 105.67 24.8C104.683 24 103.017 23.56 100.67 23.48C100.137 23.4533 99.7633 23.32 99.55 23.08C99.3367 22.84 99.23 22.4533 99.23 21.92C99.23 21.1467 99.39 20.52 99.71 20.04C100.03 19.56 100.617 19.3067 101.47 19.28C103.363 19.2267 105.07 18.9467 106.59 18.44C108.137 17.9333 109.35 17.2267 110.23 16.32C111.11 15.3867 111.55 14.3067 111.55 13.08C111.55 11.5333 110.79 10.32 109.27 9.44C107.75 8.53333 105.417 8.08 102.27 8.08C99.4167 8.08 96.6567 8.45333 93.99 9.2C91.3233 9.92 89.0567 10.84 87.19 11.96C86.3367 12.4667 85.6167 12.72 85.03 12.72C84.55 12.72 84.1767 12.56 83.91 12.24C83.67 11.8933 83.55 11.4667 83.55 10.96C83.55 10.2933 83.6833 9.72 83.95 9.24C84.2433 8.76 84.9233 8.21333 85.99 7.6C88.23 6.32 90.8567 5.32 93.87 4.6C96.8833 3.88 99.9633 3.52 103.11 3.52C107.937 3.52 111.537 4.33333 113.91 5.96C116.283 7.58667 117.47 9.73333 117.47 12.4ZM119.815 38.2C118.801 38.2 118.081 37.6667 117.655 36.6C117.255 35.5333 117.055 33.8267 117.055 31.48C117.055 28.0133 117.548 24.72 118.535 21.6C118.775 20.8267 119.161 20.2667 119.695 19.92C120.255 19.5467 121.028 19.36 122.015 19.36C122.548 19.36 122.921 19.4267 123.135 19.56C123.348 19.6933 123.455 19.9467 123.455 20.32C123.455 20.7467 123.255 21.7067 122.855 23.2C122.588 24.2667 122.375 25.2 122.215 26C122.055 26.8 121.921 27.7867 121.815 28.96C122.695 26.6667 123.681 24.8 124.775 23.36C125.868 21.92 126.935 20.8933 127.975 20.28C129.041 19.6667 130.015 19.36 130.895 19.36C132.628 19.36 133.495 20.2267 133.495 21.96C133.495 22.3067 133.375 23.1467 133.135 24.48C132.921 25.5467 132.815 26.2133 132.815 26.48C132.815 27.4133 133.148 27.88 133.815 27.88C134.561 27.88 135.521 27.2933 136.695 26.12C137.041 25.7733 137.401 25.6 137.775 25.6C138.121 25.6 138.388 25.76 138.575 26.08C138.788 26.3733 138.895 26.7733 138.895 27.28C138.895 28.2667 138.628 29.04 138.095 29.6C137.348 30.3733 136.468 31.04 135.455 31.6C134.468 32.1333 133.415 32.4 132.295 32.4C130.881 32.4 129.801 32.04 129.055 31.32C128.335 30.6 127.975 29.6267 127.975 28.4C127.975 28 128.015 27.6 128.095 27.2C128.148 26.6667 128.175 26.3067 128.175 26.12C128.175 25.6933 128.028 25.48 127.735 25.48C127.335 25.48 126.801 25.9333 126.135 26.84C125.495 27.72 124.855 28.8933 124.215 30.36C123.575 31.8267 123.055 33.3733 122.655 35C122.361 36.2533 122.015 37.1067 121.615 37.56C121.241 37.9867 120.641 38.2 119.815 38.2ZM153.018 29.08C153.364 29.08 153.631 29.24 153.818 29.56C154.031 29.88 154.138 30.32 154.138 30.88C154.138 31.9467 153.884 32.7733 153.378 33.36C152.391 34.56 150.991 35.6667 149.178 36.68C147.391 37.6933 145.471 38.2 143.418 38.2C140.618 38.2 138.444 37.44 136.898 35.92C135.351 34.4 134.578 32.32 134.578 29.68C134.578 27.84 134.964 26.1333 135.738 24.56C136.511 22.96 137.578 21.6933 138.938 20.76C140.324 19.8267 141.884 19.36 143.618 19.36C145.164 19.36 146.404 19.8267 147.338 20.76C148.271 21.6667 148.738 22.9067 148.738 24.48C148.738 26.32 148.071 27.9067 146.738 29.24C145.431 30.5467 143.204 31.5867 140.058 32.36C140.724 33.5867 141.991 34.2 143.858 34.2C145.058 34.2 146.418 33.7867 147.938 32.96C149.484 32.1067 150.818 31 151.938 29.64C152.258 29.2667 152.618 29.08 153.018 29.08ZM142.938 23.28C141.951 23.28 141.111 23.8533 140.418 25C139.751 26.1467 139.418 27.5333 139.418 29.16V29.24C140.991 28.8667 142.231 28.3067 143.138 27.56C144.044 26.8133 144.498 25.9467 144.498 24.96C144.498 24.4533 144.351 24.0533 144.058 23.76C143.791 23.44 143.418 23.28 142.938 23.28ZM155.606 38.2C153.952 38.2 152.632 37.6 151.646 36.4C150.659 35.2 150.166 33.6267 150.166 31.68C150.166 29.5467 150.659 27.5333 151.646 25.64C152.632 23.72 153.939 22.1867 155.566 21.04C157.219 19.8667 158.966 19.28 160.806 19.28C161.392 19.28 161.779 19.4 161.966 19.64C162.179 19.8533 162.352 20.2533 162.486 20.84C163.046 20.7333 163.632 20.68 164.246 20.68C165.552 20.68 166.206 21.1467 166.206 22.08C166.206 22.64 166.006 23.9733 165.606 26.08C164.992 29.1467 164.686 31.28 164.686 32.48C164.686 32.88 164.779 33.2 164.966 33.44C165.179 33.68 165.446 33.8 165.766 33.8C166.272 33.8 166.886 33.48 167.606 32.84C168.326 32.1733 169.299 31.1067 170.526 29.64C170.846 29.2667 171.206 29.08 171.606 29.08C171.952 29.08 172.219 29.24 172.406 29.56C172.619 29.88 172.726 30.32 172.726 30.88C172.726 31.9467 172.472 32.7733 171.966 33.36C170.872 34.72 169.712 35.8667 168.486 36.8C167.259 37.7333 166.072 38.2 164.926 38.2C164.046 38.2 163.232 37.9067 162.486 37.32C161.766 36.7067 161.219 35.88 160.846 34.84C159.459 37.08 157.712 38.2 155.606 38.2ZM157.046 34.16C157.632 34.16 158.192 33.8133 158.726 33.12C159.259 32.4267 159.646 31.5067 159.886 30.36L161.366 23C160.246 23.0267 159.206 23.4533 158.246 24.28C157.312 25.08 156.566 26.1467 156.006 27.48C155.446 28.8133 155.166 30.2267 155.166 31.72C155.166 32.5467 155.326 33.16 155.646 33.56C155.992 33.96 156.459 34.16 157.046 34.16ZM192.595 29.08C192.941 29.08 193.208 29.24 193.395 29.56C193.608 29.88 193.715 30.32 193.715 30.88C193.715 31.9467 193.461 32.7733 192.955 33.36C191.755 34.8267 190.541 36 189.315 36.88C188.088 37.76 186.635 38.2 184.955 38.2C182.901 38.2 181.248 37.6133 179.995 36.44C178.741 35.2667 178.115 33.7067 178.115 31.76C178.115 30.72 178.648 29.9733 179.715 29.52C180.888 29.0133 181.728 28.48 182.235 27.92C182.741 27.3333 182.995 26.6267 182.995 25.8C182.995 25.32 182.888 24.96 182.675 24.72C182.488 24.48 182.248 24.36 181.955 24.36C181.235 24.36 180.435 24.88 179.555 25.92C178.701 26.96 177.901 28.3067 177.155 29.96C176.408 31.5867 175.821 33.2667 175.395 35C175.101 36.2533 174.755 37.1067 174.355 37.56C173.981 37.9867 173.381 38.2 172.555 38.2C171.728 38.2 171.115 37.9067 170.715 37.32C170.341 36.7067 170.088 35.7733 169.955 34.52C169.821 33.2667 169.755 31.4267 169.755 29C169.755 24.8933 170.168 20.6133 170.995 16.16C171.848 11.7067 173.088 7.97333 174.715 4.96C176.368 1.92 178.341 0.399998 180.635 0.399998C181.861 0.399998 182.848 0.933331 183.595 2C184.368 3.04 184.755 4.4 184.755 6.08C184.755 8.77333 183.968 11.5733 182.395 14.48C180.821 17.36 178.261 20.7333 174.715 24.6C174.635 25.9867 174.595 27.4133 174.595 28.88C175.875 25.5467 177.341 23.1333 178.995 21.64C180.648 20.12 182.195 19.36 183.635 19.36C184.968 19.36 186.035 19.8133 186.835 20.72C187.661 21.6267 188.075 22.7467 188.075 24.08C188.075 25.5467 187.701 26.8933 186.955 28.12C186.208 29.3467 184.928 30.44 183.115 31.4C183.221 32.12 183.541 32.7067 184.075 33.16C184.635 33.5867 185.301 33.8 186.075 33.8C186.901 33.8 187.701 33.48 188.475 32.84C189.248 32.2 190.261 31.1333 191.515 29.64C191.835 29.2667 192.195 29.08 192.595 29.08ZM179.795 4.36C179.315 4.36 178.781 5.05333 178.195 6.44C177.608 7.8 177.035 9.65333 176.475 12C175.941 14.32 175.501 16.8533 175.155 19.6C176.808 17.6533 178.168 15.5333 179.235 13.24C180.328 10.9467 180.875 8.86667 180.875 7C180.875 6.14667 180.781 5.49333 180.595 5.04C180.408 4.58667 180.141 4.36 179.795 4.36ZM206.45 26.8C207.197 26.8 207.57 27.36 207.57 28.48C207.57 30.5867 205.917 31.64 202.61 31.64C201.97 31.64 201.05 31.52 199.85 31.28C200.197 32.9333 200.477 34.7733 200.69 36.8C200.93 38.8 201.05 40.4533 201.05 41.76C201.05 44.64 200.584 46.84 199.65 48.36C198.717 49.88 197.49 50.64 195.97 50.64C194.05 50.64 192.677 49.28 191.85 46.56C191.05 43.84 190.65 39.7333 190.65 34.24C190.65 29.12 191.197 23.9333 192.29 18.68C193.41 13.4 194.93 9.04 196.85 5.6C198.797 2.13333 200.93 0.399998 203.25 0.399998C204.504 0.399998 205.477 0.959998 206.17 2.08C206.89 3.2 207.25 4.70666 207.25 6.6C207.25 12.8667 203.504 19.6933 196.01 27.08C195.744 29.6933 195.61 31.9867 195.61 33.96C195.61 36.7067 195.704 39.52 195.89 42.4C196.077 45.3067 196.384 46.76 196.81 46.76C197.61 46.76 198.01 45.3733 198.01 42.6C198.01 40.52 197.864 38.5067 197.57 36.56C197.304 34.6133 196.93 32.56 196.45 30.4C196.424 30.0533 196.53 29.6133 196.77 29.08C197.037 28.5467 197.357 28.08 197.73 27.68C198.104 27.28 198.437 27.08 198.73 27.08C199.264 27.08 199.904 27.1067 200.65 27.16C200.89 27.1867 201.17 27.2 201.49 27.2C202.557 27.2 203.744 27.1067 205.05 26.92C205.264 26.8933 205.49 26.8667 205.73 26.84C205.97 26.8133 206.21 26.8 206.45 26.8ZM202.41 4.36C201.93 4.36 201.33 5.17333 200.61 6.8C199.917 8.42667 199.224 10.5867 198.53 13.28C197.837 15.9467 197.237 18.7733 196.73 21.76C198.864 19.3333 200.504 16.8133 201.65 14.2C202.797 11.56 203.384 9.09333 203.41 6.8C203.41 5.17333 203.077 4.36 202.41 4.36ZM209.668 38.2C208.015 38.2 206.695 37.6 205.708 36.4C204.721 35.2 204.228 33.6267 204.228 31.68C204.228 29.5467 204.721 27.5333 205.708 25.64C206.695 23.72 208.001 22.1867 209.628 21.04C211.281 19.8667 213.028 19.28 214.868 19.28C215.455 19.28 215.841 19.4 216.028 19.64C216.241 19.8533 216.415 20.2533 216.548 20.84C217.108 20.7333 217.695 20.68 218.308 20.68C219.615 20.68 220.268 21.1467 220.268 22.08C220.268 22.64 220.068 23.9733 219.668 26.08C219.055 29.1467 218.748 31.28 218.748 32.48C218.748 32.88 218.841 33.2 219.028 33.44C219.241 33.68 219.508 33.8 219.828 33.8C220.335 33.8 220.948 33.48 221.668 32.84C222.388 32.1733 223.361 31.1067 224.588 29.64C224.908 29.2667 225.268 29.08 225.668 29.08C226.015 29.08 226.281 29.24 226.468 29.56C226.681 29.88 226.788 30.32 226.788 30.88C226.788 31.9467 226.535 32.7733 226.028 33.36C224.935 34.72 223.775 35.8667 222.548 36.8C221.321 37.7333 220.135 38.2 218.988 38.2C218.108 38.2 217.295 37.9067 216.548 37.32C215.828 36.7067 215.281 35.88 214.908 34.84C213.521 37.08 211.775 38.2 209.668 38.2ZM211.108 34.16C211.695 34.16 212.255 33.8133 212.788 33.12C213.321 32.4267 213.708 31.5067 213.948 30.36L215.428 23C214.308 23.0267 213.268 23.4533 212.308 24.28C211.375 25.08 210.628 26.1467 210.068 27.48C209.508 28.8133 209.228 30.2267 209.228 31.72C209.228 32.5467 209.388 33.16 209.708 33.56C210.055 33.96 210.521 34.16 211.108 34.16ZM230.977 39.08C229.591 39.08 228.524 38.76 227.777 38.12C227.057 37.48 226.697 36.76 226.697 35.96C226.697 35.2667 226.951 34.6667 227.457 34.16C227.964 33.6533 228.711 33.4 229.697 33.4C230.044 33.4 230.444 33.44 230.897 33.52C231.377 33.5733 231.737 33.6133 231.977 33.64C231.951 32.9467 231.791 32.2933 231.497 31.68C231.231 31.0667 230.884 30.48 230.457 29.92C230.031 29.3333 229.631 28.8267 229.257 28.4C228.431 29.9733 227.604 31.28 226.777 32.32C225.977 33.36 225.097 34.3467 224.137 35.28C223.657 35.76 223.151 36 222.617 36C222.191 36 221.844 35.8533 221.577 35.56C221.311 35.24 221.177 34.8533 221.177 34.4C221.177 33.8667 221.364 33.3733 221.737 32.92L222.257 32.28C223.724 30.4667 224.831 28.9733 225.577 27.8C226.031 27.0267 226.564 26 227.177 24.72C227.791 23.4133 228.391 22.0667 228.977 20.68C229.484 19.5067 230.537 18.92 232.137 18.92C232.884 18.92 233.404 18.9867 233.697 19.12C233.991 19.2533 234.137 19.4667 234.137 19.76C234.137 19.92 234.084 20.1733 233.977 20.52C233.871 20.8667 233.724 21.2133 233.537 21.56C233.057 22.52 232.817 23.3333 232.817 24C232.817 24.4 232.951 24.84 233.217 25.32C233.511 25.8 233.951 26.4 234.537 27.12C235.391 28.24 236.031 29.2 236.457 30C236.911 30.7733 237.137 31.6267 237.137 32.56C237.137 32.8267 237.111 33.2 237.057 33.68C238.364 33.1733 239.897 31.8267 241.657 29.64C241.977 29.2667 242.337 29.08 242.737 29.08C243.084 29.08 243.351 29.24 243.537 29.56C243.751 29.88 243.857 30.32 243.857 30.88C243.857 31.8933 243.604 32.72 243.097 33.36C241.764 35.0133 240.484 36.1467 239.257 36.76C238.057 37.3467 236.564 37.6667 234.777 37.72C233.711 38.6267 232.444 39.08 230.977 39.08ZM247.208 23.16C247.154 24.4933 247.128 25.5333 247.128 26.28C247.128 28.2 247.221 29.7067 247.408 30.8C247.621 31.8667 247.954 32.64 248.408 33.12C248.888 33.5733 249.541 33.8 250.368 33.8C250.794 33.8 251.301 33.6667 251.888 33.4C252.474 33.1333 253.008 32.7867 253.488 32.36C253.781 32.0933 254.074 31.96 254.368 31.96C254.688 31.96 254.941 32.1467 255.128 32.52C255.341 32.8667 255.448 33.2933 255.448 33.8C255.448 34.3067 255.341 34.8 255.128 35.28C254.941 35.76 254.648 36.16 254.248 36.48C252.861 37.6267 251.288 38.2 249.528 38.2C246.994 38.2 245.141 37.1467 243.967 35.04C242.794 32.9067 242.208 30.1333 242.208 26.72C242.208 25.5467 242.248 24.36 242.328 23.16H240.768C239.968 23.16 239.421 23.0133 239.128 22.72C238.861 22.4267 238.728 21.96 238.728 21.32C238.728 19.8267 239.328 19.08 240.528 19.08H242.808C243.261 16.1467 243.954 13.4667 244.888 11.04C245.821 8.61333 246.941 6.68 248.248 5.24C249.581 3.8 251.008 3.08 252.528 3.08C253.648 3.08 254.528 3.57333 255.168 4.56C255.808 5.54667 256.128 6.78667 256.128 8.28C256.128 12.4133 254.394 16.0133 250.928 19.08H255.408C255.834 19.08 256.141 19.1733 256.328 19.36C256.514 19.5467 256.608 19.8933 256.608 20.4C256.608 22.24 255.101 23.16 252.088 23.16H247.208ZM251.448 6.92C251.048 6.92 250.594 7.42667 250.088 8.44C249.608 9.42667 249.141 10.8133 248.688 12.6C248.261 14.36 247.901 16.32 247.608 18.48C249.181 17.12 250.354 15.6 251.128 13.92C251.928 12.2133 252.328 10.6667 252.328 9.28C252.328 7.70667 252.034 6.92 251.448 6.92Z" fill="url(#paint0_linear_72_160)"/>
<defs>
<linearGradient id="paint0_linear_72_160" x1="-1" y1="37.5" x2="271" y2="37.5" gradientUnits="userSpaceOnUse">
<stop stop-color="#F68F05"/>
<stop offset="1" stop-color="#F68F05"/>
</linearGradient>
</defs>
</svg>
