<svg width="272" height="103" viewBox="0 0 272 103" fill="none" xmlns="http://www.w3.org/2000/svg">
<path d="M12.32 52.2C10.7733 52.2 9.02667 52.0667 7.08 51.8C6.01333 51.6667 5.28 51.3867 4.88 50.96C4.48 50.5333 4.30667 49.84 4.36 48.88C4.54667 46.24 4.98667 42.9867 5.68 39.12C6.37333 35.2267 7.21333 31.48 8.2 27.88C8.38667 27.2133 8.76 26.7467 9.32 26.48C9.88 26.2133 10.6133 26.08 11.52 26.08C13.1467 26.08 13.96 26.5333 13.96 27.44C13.96 27.8133 13.88 28.24 13.72 28.72C13.0267 30.8533 12.3333 33.72 11.64 37.32C10.9467 40.8933 10.4533 44.3067 10.16 47.56C10.96 47.64 11.8667 47.68 12.88 47.68C17.5467 47.68 21.0267 46.2667 23.32 43.44C25.64 40.6133 26.8 36.84 26.8 32.12C26.8 28.9467 25.8933 26.4933 24.08 24.76C22.2667 23.0267 19.7067 22.16 16.4 22.16C14.2667 22.16 12.1467 22.4933 10.04 23.16C7.96 23.8267 6.08 24.7067 4.4 25.8C4.05333 26.04 3.68 26.16 3.28 26.16C2.82667 26.16 2.46667 25.9733 2.2 25.6C1.93333 25.2 1.8 24.72 1.8 24.16C1.8 23.52 1.90667 23 2.12 22.6C2.33333 22.1733 2.69333 21.7867 3.2 21.44C5.04 20.1867 7.2 19.24 9.68 18.6C12.16 17.9333 14.5467 17.6 16.84 17.6C20.0933 17.6 22.9067 18.1733 25.28 19.32C27.6533 20.44 29.48 22.0933 30.76 24.28C32.04 26.4667 32.68 29.1067 32.68 32.2C32.68 36.2267 31.88 39.7467 30.28 42.76C28.68 45.7467 26.3467 48.0667 23.28 49.72C20.2133 51.3733 16.56 52.2 12.32 52.2ZM51.3175 40.8C52.0642 40.8 52.4375 41.36 52.4375 42.48C52.4375 44.5867 50.7842 45.64 47.4775 45.64C46.8375 45.64 45.9175 45.52 44.7175 45.28C45.0642 46.9333 45.3442 48.7733 45.5575 50.8C45.7975 52.8 45.9175 54.4533 45.9175 55.76C45.9175 58.64 45.4508 60.84 44.5175 62.36C43.5842 63.88 42.3575 64.64 40.8375 64.64C38.9175 64.64 37.5442 63.28 36.7175 60.56C35.9175 57.84 35.5175 53.7333 35.5175 48.24C35.5175 43.12 36.0642 37.9333 37.1575 32.68C38.2775 27.4 39.7975 23.04 41.7175 19.6C43.6642 16.1333 45.7975 14.4 48.1175 14.4C49.3708 14.4 50.3442 14.96 51.0375 16.08C51.7575 17.2 52.1175 18.7067 52.1175 20.6C52.1175 26.8667 48.3708 33.6933 40.8775 41.08C40.6108 43.6933 40.4775 45.9867 40.4775 47.96C40.4775 50.7067 40.5708 53.52 40.7575 56.4C40.9442 59.3067 41.2508 60.76 41.6775 60.76C42.4775 60.76 42.8775 59.3733 42.8775 56.6C42.8775 54.52 42.7308 52.5067 42.4375 50.56C42.1708 48.6133 41.7975 46.56 41.3175 44.4C41.2908 44.0533 41.3975 43.6133 41.6375 43.08C41.9042 42.5467 42.2242 42.08 42.5975 41.68C42.9708 41.28 43.3042 41.08 43.5975 41.08C44.1308 41.08 44.7708 41.1067 45.5175 41.16C45.7575 41.1867 46.0375 41.2 46.3575 41.2C47.4242 41.2 48.6108 41.1067 49.9175 40.92C50.1308 40.8933 50.3575 40.8667 50.5975 40.84C50.8375 40.8133 51.0775 40.8 51.3175 40.8ZM47.2775 18.36C46.7975 18.36 46.1975 19.1733 45.4775 20.8C44.7842 22.4267 44.0908 24.5867 43.3975 27.28C42.7042 29.9467 42.1042 32.7733 41.5975 35.76C43.7308 33.3333 45.3708 30.8133 46.5175 28.2C47.6642 25.56 48.2508 23.0933 48.2775 20.8C48.2775 19.1733 47.9442 18.36 47.2775 18.36ZM69.82 39.72C70.1667 39.72 70.4333 39.8933 70.62 40.24C70.8067 40.5867 70.9 41.0267 70.9 41.56C70.9 42.84 70.5133 43.6 69.74 43.84C68.14 44.4 66.38 44.72 64.46 44.8C63.9533 47.04 62.9533 48.84 61.46 50.2C59.9667 51.5333 58.2733 52.2 56.38 52.2C54.78 52.2 53.4067 51.8133 52.26 51.04C51.14 50.2667 50.2867 49.24 49.7 47.96C49.1133 46.68 48.82 45.2933 48.82 43.8C48.82 41.7733 49.2067 39.9733 49.98 38.4C50.7533 36.8 51.82 35.56 53.18 34.68C54.54 33.7733 56.0467 33.32 57.7 33.32C59.7267 33.32 61.3533 34.0267 62.58 35.44C63.8333 36.8267 64.5667 38.5467 64.78 40.6C66.0333 40.52 67.5267 40.2533 69.26 39.8C69.4733 39.7467 69.66 39.72 69.82 39.72ZM56.7 47.96C57.5533 47.96 58.2867 47.6133 58.9 46.92C59.54 46.2267 59.9667 45.2267 60.18 43.92C59.3533 43.36 58.7133 42.6267 58.26 41.72C57.8333 40.8133 57.62 39.8533 57.62 38.84C57.62 38.4133 57.66 37.9867 57.74 37.56H57.54C56.4733 37.56 55.58 38.08 54.86 39.12C54.1667 40.1333 53.82 41.5733 53.82 43.44C53.82 44.9067 54.1 46.0267 54.66 46.8C55.2467 47.5733 55.9267 47.96 56.7 47.96ZM70.3069 52.2C69.2935 52.2 68.5735 51.6667 68.1469 50.6C67.7469 49.5333 67.5469 47.8267 67.5469 45.48C67.5469 42.0133 68.0402 38.72 69.0269 35.6C69.2669 34.8267 69.6535 34.2667 70.1869 33.92C70.7469 33.5467 71.5202 33.36 72.5069 33.36C73.0402 33.36 73.4135 33.4267 73.6269 33.56C73.8402 33.6933 73.9469 33.9467 73.9469 34.32C73.9469 34.7467 73.7469 35.7067 73.3469 37.2C73.0802 38.2667 72.8669 39.2 72.7069 40C72.5469 40.8 72.4135 41.7867 72.3069 42.96C73.1869 40.6667 74.1735 38.8 75.2669 37.36C76.3602 35.92 77.4269 34.8933 78.4669 34.28C79.5335 33.6667 80.5069 33.36 81.3869 33.36C83.1202 33.36 83.9869 34.2267 83.9869 35.96C83.9869 36.3067 83.8669 37.1467 83.6269 38.48C83.4135 39.5467 83.3069 40.2133 83.3069 40.48C83.3069 41.4133 83.6402 41.88 84.3069 41.88C85.0535 41.88 86.0135 41.2933 87.1869 40.12C87.5335 39.7733 87.8935 39.6 88.2669 39.6C88.6135 39.6 88.8802 39.76 89.0669 40.08C89.2802 40.3733 89.3869 40.7733 89.3869 41.28C89.3869 42.2667 89.1202 43.04 88.5869 43.6C87.8402 44.3733 86.9602 45.04 85.9469 45.6C84.9602 46.1333 83.9069 46.4 82.7869 46.4C81.3735 46.4 80.2935 46.04 79.5469 45.32C78.8269 44.6 78.4669 43.6267 78.4669 42.4C78.4669 42 78.5069 41.6 78.5869 41.2C78.6402 40.6667 78.6669 40.3067 78.6669 40.12C78.6669 39.6933 78.5202 39.48 78.2269 39.48C77.8269 39.48 77.2935 39.9333 76.6269 40.84C75.9869 41.72 75.3469 42.8933 74.7069 44.36C74.0669 45.8267 73.5469 47.3733 73.1469 49C72.8535 50.2533 72.5069 51.1067 72.1069 51.56C71.7335 51.9867 71.1335 52.2 70.3069 52.2ZM118.47 26.4C118.47 28.6667 117.67 30.6267 116.07 32.28C114.47 33.9067 112.137 35.08 109.07 35.8C110.723 36.2533 111.977 37 112.83 38.04C113.683 39.0533 114.11 40.2267 114.11 41.56C114.11 43.6667 113.443 45.4933 112.11 47.04C110.803 48.5867 108.883 49.7867 106.35 50.64C103.817 51.4667 100.763 51.88 97.19 51.88C95.8567 51.88 94.79 51.84 93.99 51.76C93.9633 52.5067 93.6433 53.0667 93.03 53.44C92.4167 53.8133 91.63 54 90.67 54C89.71 54 89.0433 53.7867 88.67 53.36C88.3233 52.9333 88.1767 52.3067 88.23 51.48C88.47 47.7467 88.9367 43.84 89.63 39.76C90.3233 35.6533 91.2033 31.6933 92.27 27.88C92.4567 27.2133 92.83 26.7467 93.39 26.48C93.95 26.2133 94.6833 26.08 95.59 26.08C97.2167 26.08 98.03 26.5333 98.03 27.44C98.03 27.8133 97.95 28.24 97.79 28.72C97.0967 30.8 96.4033 33.6267 95.71 37.2C95.0167 40.7467 94.5233 44.1333 94.23 47.36C95.51 47.4667 96.55 47.52 97.35 47.52C101.083 47.52 103.817 46.9867 105.55 45.92C107.31 44.8267 108.19 43.44 108.19 41.76C108.19 40.5867 107.683 39.6 106.67 38.8C105.683 38 104.017 37.56 101.67 37.48C101.137 37.4533 100.763 37.32 100.55 37.08C100.337 36.84 100.23 36.4533 100.23 35.92C100.23 35.1467 100.39 34.52 100.71 34.04C101.03 33.56 101.617 33.3067 102.47 33.28C104.363 33.2267 106.07 32.9467 107.59 32.44C109.137 31.9333 110.35 31.2267 111.23 30.32C112.11 29.3867 112.55 28.3067 112.55 27.08C112.55 25.5333 111.79 24.32 110.27 23.44C108.75 22.5333 106.417 22.08 103.27 22.08C100.417 22.08 97.6567 22.4533 94.99 23.2C92.3233 23.92 90.0567 24.84 88.19 25.96C87.3367 26.4667 86.6167 26.72 86.03 26.72C85.55 26.72 85.1767 26.56 84.91 26.24C84.67 25.8933 84.55 25.4667 84.55 24.96C84.55 24.2933 84.6833 23.72 84.95 23.24C85.2433 22.76 85.9233 22.2133 86.99 21.6C89.23 20.32 91.8567 19.32 94.87 18.6C97.8833 17.88 100.963 17.52 104.11 17.52C108.937 17.52 112.537 18.3333 114.91 19.96C117.283 21.5867 118.47 23.7333 118.47 26.4ZM120.815 52.2C119.801 52.2 119.081 51.6667 118.655 50.6C118.255 49.5333 118.055 47.8267 118.055 45.48C118.055 42.0133 118.548 38.72 119.535 35.6C119.775 34.8267 120.161 34.2667 120.695 33.92C121.255 33.5467 122.028 33.36 123.015 33.36C123.548 33.36 123.921 33.4267 124.135 33.56C124.348 33.6933 124.455 33.9467 124.455 34.32C124.455 34.7467 124.255 35.7067 123.855 37.2C123.588 38.2667 123.375 39.2 123.215 40C123.055 40.8 122.921 41.7867 122.815 42.96C123.695 40.6667 124.681 38.8 125.775 37.36C126.868 35.92 127.935 34.8933 128.975 34.28C130.041 33.6667 131.015 33.36 131.895 33.36C133.628 33.36 134.495 34.2267 134.495 35.96C134.495 36.3067 134.375 37.1467 134.135 38.48C133.921 39.5467 133.815 40.2133 133.815 40.48C133.815 41.4133 134.148 41.88 134.815 41.88C135.561 41.88 136.521 41.2933 137.695 40.12C138.041 39.7733 138.401 39.6 138.775 39.6C139.121 39.6 139.388 39.76 139.575 40.08C139.788 40.3733 139.895 40.7733 139.895 41.28C139.895 42.2667 139.628 43.04 139.095 43.6C138.348 44.3733 137.468 45.04 136.455 45.6C135.468 46.1333 134.415 46.4 133.295 46.4C131.881 46.4 130.801 46.04 130.055 45.32C129.335 44.6 128.975 43.6267 128.975 42.4C128.975 42 129.015 41.6 129.095 41.2C129.148 40.6667 129.175 40.3067 129.175 40.12C129.175 39.6933 129.028 39.48 128.735 39.48C128.335 39.48 127.801 39.9333 127.135 40.84C126.495 41.72 125.855 42.8933 125.215 44.36C124.575 45.8267 124.055 47.3733 123.655 49C123.361 50.2533 123.015 51.1067 122.615 51.56C122.241 51.9867 121.641 52.2 120.815 52.2ZM154.018 43.08C154.364 43.08 154.631 43.24 154.818 43.56C155.031 43.88 155.138 44.32 155.138 44.88C155.138 45.9467 154.884 46.7733 154.378 47.36C153.391 48.56 151.991 49.6667 150.178 50.68C148.391 51.6933 146.471 52.2 144.418 52.2C141.618 52.2 139.444 51.44 137.898 49.92C136.351 48.4 135.578 46.32 135.578 43.68C135.578 41.84 135.964 40.1333 136.738 38.56C137.511 36.96 138.578 35.6933 139.938 34.76C141.324 33.8267 142.884 33.36 144.618 33.36C146.164 33.36 147.404 33.8267 148.338 34.76C149.271 35.6667 149.738 36.9067 149.738 38.48C149.738 40.32 149.071 41.9067 147.738 43.24C146.431 44.5467 144.204 45.5867 141.058 46.36C141.724 47.5867 142.991 48.2 144.858 48.2C146.058 48.2 147.418 47.7867 148.938 46.96C150.484 46.1067 151.818 45 152.938 43.64C153.258 43.2667 153.618 43.08 154.018 43.08ZM143.938 37.28C142.951 37.28 142.111 37.8533 141.418 39C140.751 40.1467 140.418 41.5333 140.418 43.16V43.24C141.991 42.8667 143.231 42.3067 144.138 41.56C145.044 40.8133 145.498 39.9467 145.498 38.96C145.498 38.4533 145.351 38.0533 145.058 37.76C144.791 37.44 144.418 37.28 143.938 37.28ZM156.606 52.2C154.952 52.2 153.632 51.6 152.646 50.4C151.659 49.2 151.166 47.6267 151.166 45.68C151.166 43.5467 151.659 41.5333 152.646 39.64C153.632 37.72 154.939 36.1867 156.566 35.04C158.219 33.8667 159.966 33.28 161.806 33.28C162.392 33.28 162.779 33.4 162.966 33.64C163.179 33.8533 163.352 34.2533 163.486 34.84C164.046 34.7333 164.632 34.68 165.246 34.68C166.552 34.68 167.206 35.1467 167.206 36.08C167.206 36.64 167.006 37.9733 166.606 40.08C165.992 43.1467 165.686 45.28 165.686 46.48C165.686 46.88 165.779 47.2 165.966 47.44C166.179 47.68 166.446 47.8 166.766 47.8C167.272 47.8 167.886 47.48 168.606 46.84C169.326 46.1733 170.299 45.1067 171.526 43.64C171.846 43.2667 172.206 43.08 172.606 43.08C172.952 43.08 173.219 43.24 173.406 43.56C173.619 43.88 173.726 44.32 173.726 44.88C173.726 45.9467 173.472 46.7733 172.966 47.36C171.872 48.72 170.712 49.8667 169.486 50.8C168.259 51.7333 167.072 52.2 165.926 52.2C165.046 52.2 164.232 51.9067 163.486 51.32C162.766 50.7067 162.219 49.88 161.846 48.84C160.459 51.08 158.712 52.2 156.606 52.2ZM158.046 48.16C158.632 48.16 159.192 47.8133 159.726 47.12C160.259 46.4267 160.646 45.5067 160.886 44.36L162.366 37C161.246 37.0267 160.206 37.4533 159.246 38.28C158.312 39.08 157.566 40.1467 157.006 41.48C156.446 42.8133 156.166 44.2267 156.166 45.72C156.166 46.5467 156.326 47.16 156.646 47.56C156.992 47.96 157.459 48.16 158.046 48.16ZM193.595 43.08C193.941 43.08 194.208 43.24 194.395 43.56C194.608 43.88 194.715 44.32 194.715 44.88C194.715 45.9467 194.461 46.7733 193.955 47.36C192.755 48.8267 191.541 50 190.315 50.88C189.088 51.76 187.635 52.2 185.955 52.2C183.901 52.2 182.248 51.6133 180.995 50.44C179.741 49.2667 179.115 47.7067 179.115 45.76C179.115 44.72 179.648 43.9733 180.715 43.52C181.888 43.0133 182.728 42.48 183.235 41.92C183.741 41.3333 183.995 40.6267 183.995 39.8C183.995 39.32 183.888 38.96 183.675 38.72C183.488 38.48 183.248 38.36 182.955 38.36C182.235 38.36 181.435 38.88 180.555 39.92C179.701 40.96 178.901 42.3067 178.155 43.96C177.408 45.5867 176.821 47.2667 176.395 49C176.101 50.2533 175.755 51.1067 175.355 51.56C174.981 51.9867 174.381 52.2 173.555 52.2C172.728 52.2 172.115 51.9067 171.715 51.32C171.341 50.7067 171.088 49.7733 170.955 48.52C170.821 47.2667 170.755 45.4267 170.755 43C170.755 38.8933 171.168 34.6133 171.995 30.16C172.848 25.7067 174.088 21.9733 175.715 18.96C177.368 15.92 179.341 14.4 181.635 14.4C182.861 14.4 183.848 14.9333 184.595 16C185.368 17.04 185.755 18.4 185.755 20.08C185.755 22.7733 184.968 25.5733 183.395 28.48C181.821 31.36 179.261 34.7333 175.715 38.6C175.635 39.9867 175.595 41.4133 175.595 42.88C176.875 39.5467 178.341 37.1333 179.995 35.64C181.648 34.12 183.195 33.36 184.635 33.36C185.968 33.36 187.035 33.8133 187.835 34.72C188.661 35.6267 189.075 36.7467 189.075 38.08C189.075 39.5467 188.701 40.8933 187.955 42.12C187.208 43.3467 185.928 44.44 184.115 45.4C184.221 46.12 184.541 46.7067 185.075 47.16C185.635 47.5867 186.301 47.8 187.075 47.8C187.901 47.8 188.701 47.48 189.475 46.84C190.248 46.2 191.261 45.1333 192.515 43.64C192.835 43.2667 193.195 43.08 193.595 43.08ZM180.795 18.36C180.315 18.36 179.781 19.0533 179.195 20.44C178.608 21.8 178.035 23.6533 177.475 26C176.941 28.32 176.501 30.8533 176.155 33.6C177.808 31.6533 179.168 29.5333 180.235 27.24C181.328 24.9467 181.875 22.8667 181.875 21C181.875 20.1467 181.781 19.4933 181.595 19.04C181.408 18.5867 181.141 18.36 180.795 18.36ZM207.45 40.8C208.197 40.8 208.57 41.36 208.57 42.48C208.57 44.5867 206.917 45.64 203.61 45.64C202.97 45.64 202.05 45.52 200.85 45.28C201.197 46.9333 201.477 48.7733 201.69 50.8C201.93 52.8 202.05 54.4533 202.05 55.76C202.05 58.64 201.584 60.84 200.65 62.36C199.717 63.88 198.49 64.64 196.97 64.64C195.05 64.64 193.677 63.28 192.85 60.56C192.05 57.84 191.65 53.7333 191.65 48.24C191.65 43.12 192.197 37.9333 193.29 32.68C194.41 27.4 195.93 23.04 197.85 19.6C199.797 16.1333 201.93 14.4 204.25 14.4C205.504 14.4 206.477 14.96 207.17 16.08C207.89 17.2 208.25 18.7067 208.25 20.6C208.25 26.8667 204.504 33.6933 197.01 41.08C196.744 43.6933 196.61 45.9867 196.61 47.96C196.61 50.7067 196.704 53.52 196.89 56.4C197.077 59.3067 197.384 60.76 197.81 60.76C198.61 60.76 199.01 59.3733 199.01 56.6C199.01 54.52 198.864 52.5067 198.57 50.56C198.304 48.6133 197.93 46.56 197.45 44.4C197.424 44.0533 197.53 43.6133 197.77 43.08C198.037 42.5467 198.357 42.08 198.73 41.68C199.104 41.28 199.437 41.08 199.73 41.08C200.264 41.08 200.904 41.1067 201.65 41.16C201.89 41.1867 202.17 41.2 202.49 41.2C203.557 41.2 204.744 41.1067 206.05 40.92C206.264 40.8933 206.49 40.8667 206.73 40.84C206.97 40.8133 207.21 40.8 207.45 40.8ZM203.41 18.36C202.93 18.36 202.33 19.1733 201.61 20.8C200.917 22.4267 200.224 24.5867 199.53 27.28C198.837 29.9467 198.237 32.7733 197.73 35.76C199.864 33.3333 201.504 30.8133 202.65 28.2C203.797 25.56 204.384 23.0933 204.41 20.8C204.41 19.1733 204.077 18.36 203.41 18.36ZM210.668 52.2C209.015 52.2 207.695 51.6 206.708 50.4C205.721 49.2 205.228 47.6267 205.228 45.68C205.228 43.5467 205.721 41.5333 206.708 39.64C207.695 37.72 209.001 36.1867 210.628 35.04C212.281 33.8667 214.028 33.28 215.868 33.28C216.455 33.28 216.841 33.4 217.028 33.64C217.241 33.8533 217.415 34.2533 217.548 34.84C218.108 34.7333 218.695 34.68 219.308 34.68C220.615 34.68 221.268 35.1467 221.268 36.08C221.268 36.64 221.068 37.9733 220.668 40.08C220.055 43.1467 219.748 45.28 219.748 46.48C219.748 46.88 219.841 47.2 220.028 47.44C220.241 47.68 220.508 47.8 220.828 47.8C221.335 47.8 221.948 47.48 222.668 46.84C223.388 46.1733 224.361 45.1067 225.588 43.64C225.908 43.2667 226.268 43.08 226.668 43.08C227.015 43.08 227.281 43.24 227.468 43.56C227.681 43.88 227.788 44.32 227.788 44.88C227.788 45.9467 227.535 46.7733 227.028 47.36C225.935 48.72 224.775 49.8667 223.548 50.8C222.321 51.7333 221.135 52.2 219.988 52.2C219.108 52.2 218.295 51.9067 217.548 51.32C216.828 50.7067 216.281 49.88 215.908 48.84C214.521 51.08 212.775 52.2 210.668 52.2ZM212.108 48.16C212.695 48.16 213.255 47.8133 213.788 47.12C214.321 46.4267 214.708 45.5067 214.948 44.36L216.428 37C215.308 37.0267 214.268 37.4533 213.308 38.28C212.375 39.08 211.628 40.1467 211.068 41.48C210.508 42.8133 210.228 44.2267 210.228 45.72C210.228 46.5467 210.388 47.16 210.708 47.56C211.055 47.96 211.521 48.16 212.108 48.16ZM231.977 53.08C230.591 53.08 229.524 52.76 228.777 52.12C228.057 51.48 227.697 50.76 227.697 49.96C227.697 49.2667 227.951 48.6667 228.457 48.16C228.964 47.6533 229.711 47.4 230.697 47.4C231.044 47.4 231.444 47.44 231.897 47.52C232.377 47.5733 232.737 47.6133 232.977 47.64C232.951 46.9467 232.791 46.2933 232.497 45.68C232.231 45.0667 231.884 44.48 231.457 43.92C231.031 43.3333 230.631 42.8267 230.257 42.4C229.431 43.9733 228.604 45.28 227.777 46.32C226.977 47.36 226.097 48.3467 225.137 49.28C224.657 49.76 224.151 50 223.617 50C223.191 50 222.844 49.8533 222.577 49.56C222.311 49.24 222.177 48.8533 222.177 48.4C222.177 47.8667 222.364 47.3733 222.737 46.92L223.257 46.28C224.724 44.4667 225.831 42.9733 226.577 41.8C227.031 41.0267 227.564 40 228.177 38.72C228.791 37.4133 229.391 36.0667 229.977 34.68C230.484 33.5067 231.537 32.92 233.137 32.92C233.884 32.92 234.404 32.9867 234.697 33.12C234.991 33.2533 235.137 33.4667 235.137 33.76C235.137 33.92 235.084 34.1733 234.977 34.52C234.871 34.8667 234.724 35.2133 234.537 35.56C234.057 36.52 233.817 37.3333 233.817 38C233.817 38.4 233.951 38.84 234.217 39.32C234.511 39.8 234.951 40.4 235.537 41.12C236.391 42.24 237.031 43.2 237.457 44C237.911 44.7733 238.137 45.6267 238.137 46.56C238.137 46.8267 238.111 47.2 238.057 47.68C239.364 47.1733 240.897 45.8267 242.657 43.64C242.977 43.2667 243.337 43.08 243.737 43.08C244.084 43.08 244.351 43.24 244.537 43.56C244.751 43.88 244.857 44.32 244.857 44.88C244.857 45.8933 244.604 46.72 244.097 47.36C242.764 49.0133 241.484 50.1467 240.257 50.76C239.057 51.3467 237.564 51.6667 235.777 51.72C234.711 52.6267 233.444 53.08 231.977 53.08ZM248.208 37.16C248.154 38.4933 248.128 39.5333 248.128 40.28C248.128 42.2 248.221 43.7067 248.408 44.8C248.621 45.8667 248.954 46.64 249.408 47.12C249.888 47.5733 250.541 47.8 251.368 47.8C251.794 47.8 252.301 47.6667 252.888 47.4C253.474 47.1333 254.008 46.7867 254.488 46.36C254.781 46.0933 255.074 45.96 255.368 45.96C255.688 45.96 255.941 46.1467 256.128 46.52C256.341 46.8667 256.448 47.2933 256.448 47.8C256.448 48.3067 256.341 48.8 256.128 49.28C255.941 49.76 255.648 50.16 255.248 50.48C253.861 51.6267 252.288 52.2 250.528 52.2C247.994 52.2 246.141 51.1467 244.967 49.04C243.794 46.9067 243.208 44.1333 243.208 40.72C243.208 39.5467 243.248 38.36 243.328 37.16H241.768C240.968 37.16 240.421 37.0133 240.128 36.72C239.861 36.4267 239.728 35.96 239.728 35.32C239.728 33.8267 240.328 33.08 241.528 33.08H243.808C244.261 30.1467 244.954 27.4667 245.888 25.04C246.821 22.6133 247.941 20.68 249.248 19.24C250.581 17.8 252.008 17.08 253.528 17.08C254.648 17.08 255.528 17.5733 256.168 18.56C256.808 19.5467 257.128 20.7867 257.128 22.28C257.128 26.4133 255.394 30.0133 251.928 33.08H256.408C256.834 33.08 257.141 33.1733 257.328 33.36C257.514 33.5467 257.608 33.8933 257.608 34.4C257.608 36.24 256.101 37.16 253.088 37.16H248.208ZM252.448 20.92C252.048 20.92 251.594 21.4267 251.088 22.44C250.608 23.4267 250.141 24.8133 249.688 26.6C249.261 28.36 248.901 30.32 248.608 32.48C250.181 31.12 251.354 29.6 252.128 27.92C252.928 26.2133 253.328 24.6667 253.328 23.28C253.328 21.7067 253.034 20.92 252.448 20.92Z" fill="url(#paint0_linear_134_46)"/>
<path d="M37.375 84V71.5H41.1944C42.1019 71.5 42.875 71.6806 43.5139 72.0417C44.162 72.4028 44.6574 72.8843 45 73.4861C45.3426 74.0787 45.5139 74.7315 45.5139 75.4444C45.5139 76.0926 45.3704 76.6806 45.0833 77.2083C44.8056 77.7361 44.4074 78.1713 43.8889 78.5139L47.1944 84H44.4583L41.6806 79.25H39.7917V84H37.375ZM39.7917 77.1667H41.1389C41.5926 77.1667 41.963 77.0833 42.25 76.9167C42.537 76.7407 42.75 76.5231 42.8889 76.2639C43.0278 75.9954 43.0972 75.7222 43.0972 75.4444C43.0972 74.9537 42.9167 74.5509 42.5556 74.2361C42.1944 73.912 41.7222 73.75 41.1389 73.75H39.7917V77.1667ZM51.8025 84.2778C50.8673 84.2778 50.0433 84.0833 49.3303 83.6944C48.6173 83.3056 48.0618 82.7731 47.6636 82.0972C47.2655 81.412 47.0664 80.6296 47.0664 79.75C47.0664 78.9074 47.2609 78.162 47.6497 77.5139C48.0386 76.8565 48.5618 76.338 49.2192 75.9583C49.8859 75.5787 50.622 75.3889 51.4275 75.3889C52.2516 75.3889 52.9877 75.5787 53.6359 75.9583C54.284 76.3287 54.7933 76.838 55.1636 77.4861C55.5433 78.1343 55.7331 78.8704 55.7331 79.6944V80.5417H50.6497C50.4183 80.5417 50.196 80.5278 49.9831 80.5C49.7701 80.4722 49.5571 80.4398 49.3442 80.4028C49.4553 80.9583 49.7284 81.412 50.1636 81.7639C50.6081 82.1065 51.1729 82.2778 51.8581 82.2778C52.3859 82.2778 52.8581 82.1713 53.2747 81.9583C53.7007 81.7454 54.0479 81.4815 54.3164 81.1667L54.8442 83.3333C54.4275 83.6481 53.9553 83.8843 53.4275 84.0417C52.909 84.1991 52.3673 84.2778 51.8025 84.2778ZM49.2886 78.9444C49.7516 78.8426 50.2053 78.7917 50.6497 78.7917H52.122C52.3812 78.7917 52.6266 78.8009 52.8581 78.8194C53.0896 78.838 53.3071 78.8704 53.5109 78.9167C53.372 78.4167 53.1173 78.0231 52.747 77.7361C52.3859 77.4491 51.9368 77.3056 51.3997 77.3056C50.8905 77.3056 50.446 77.4537 50.0664 77.75C49.696 78.037 49.4368 78.4352 49.2886 78.9444ZM60.8229 84.2222C60.0544 84.2222 59.3553 84.0231 58.7257 83.625C58.0961 83.2269 57.5914 82.6991 57.2118 82.0417C56.8414 81.375 56.6563 80.6389 56.6563 79.8333C56.6563 79.0278 56.8414 78.2917 57.2118 77.625C57.5914 76.9583 58.0961 76.4306 58.7257 76.0417C59.3553 75.6435 60.0544 75.4444 60.8229 75.4444C61.36 75.4444 61.8507 75.5417 62.2951 75.7361C62.7396 75.9213 63.1192 76.1806 63.434 76.5139V75.6667H65.5174V84H63.434V83.1528C63.1192 83.4861 62.7396 83.75 62.2951 83.9444C61.8507 84.1296 61.36 84.2222 60.8229 84.2222ZM61.1146 82.0972C61.522 82.0972 61.8924 81.9954 62.2257 81.7917C62.559 81.588 62.8229 81.3148 63.0174 80.9722C63.2211 80.6296 63.3229 80.25 63.3229 79.8333C63.3229 79.4167 63.2211 79.037 63.0174 78.6944C62.8229 78.3519 62.559 78.0787 62.2257 77.875C61.8924 77.6713 61.522 77.5694 61.1146 77.5694C60.7072 77.5694 60.3368 77.6713 60.0035 77.875C59.6701 78.0787 59.4016 78.3519 59.1979 78.6944C59.0035 79.037 58.9063 79.4167 58.9063 79.8333C58.9063 80.25 59.0035 80.6296 59.1979 80.9722C59.4016 81.3148 59.6701 81.588 60.0035 81.7917C60.3368 81.9954 60.7072 82.0972 61.1146 82.0972ZM71.1102 84.2222C70.3325 84.2222 69.6288 84.0231 68.9991 83.625C68.3695 83.2269 67.8649 82.6991 67.4852 82.0417C67.1149 81.375 66.9297 80.6389 66.9297 79.8333C66.9297 79.0278 67.1149 78.2917 67.4852 77.625C67.8649 76.9583 68.3695 76.4306 68.9991 76.0417C69.6288 75.6435 70.3325 75.4444 71.1102 75.4444C71.5547 75.4444 71.9667 75.5093 72.3464 75.6389C72.726 75.7685 73.0686 75.9537 73.3741 76.1944V70.6667H75.7908V84H73.7075V83.1806C73.3927 83.5046 73.013 83.7593 72.5686 83.9444C72.1241 84.1296 71.638 84.2222 71.1102 84.2222ZM71.388 82.0972C71.7954 82.0972 72.1658 81.9954 72.4991 81.7917C72.8325 81.588 73.0964 81.3148 73.2908 80.9722C73.4945 80.6296 73.5964 80.25 73.5964 79.8333C73.5964 79.4167 73.4945 79.037 73.2908 78.6944C73.0964 78.3519 72.8325 78.0787 72.4991 77.875C72.1658 77.6713 71.7954 77.5694 71.388 77.5694C70.9806 77.5694 70.6102 77.6713 70.2769 77.875C69.9436 78.0787 69.6751 78.3519 69.4714 78.6944C69.2769 79.037 69.1797 79.4167 69.1797 79.8333C69.1797 80.25 69.2769 80.6296 69.4714 80.9722C69.6751 81.3148 69.9436 81.588 70.2769 81.7917C70.6102 81.9954 70.9806 82.0972 71.388 82.0972ZM77.4115 88.1667L80.1892 82.5833L76.7865 75.6667H79.4531L80.9253 78.7222C81.055 79 81.1661 79.2546 81.2587 79.4861C81.3605 79.7083 81.4439 79.9259 81.5087 80.1389C81.5828 79.9259 81.6707 79.7083 81.7726 79.4861C81.8744 79.2546 81.9948 79 82.1337 78.7222L83.6337 75.6667H86.2031L80.0087 88.1667H77.4115ZM94.6892 84.4167L90.5365 75.6667H93.1337L94.4115 78.3472C94.5318 78.5787 94.6522 78.8333 94.7726 79.1111C94.8929 79.3796 95.0133 79.6852 95.1337 80.0278C95.2633 79.7037 95.3883 79.4213 95.5087 79.1806C95.6383 78.9306 95.7633 78.6898 95.8837 78.4583L97.4531 75.3889L99.0781 78.4583C99.1892 78.662 99.305 78.8889 99.4253 79.1389C99.555 79.3889 99.68 79.6852 99.8003 80.0278C99.9207 79.6574 100.036 79.3426 100.148 79.0833C100.268 78.8241 100.384 78.5787 100.495 78.3472L101.773 75.6667H104.259L100.106 84.4167L98.2031 81.2083C98.055 80.9676 97.9161 80.7222 97.7865 80.4722C97.6568 80.2222 97.5272 79.9583 97.3976 79.6806C97.2772 79.9583 97.1476 80.2222 97.0087 80.4722C96.8791 80.7222 96.7402 80.9676 96.592 81.2083L94.6892 84.4167ZM105.257 84V70.6667H107.673V76.2917C107.969 75.9954 108.307 75.7731 108.687 75.625C109.076 75.4676 109.488 75.3889 109.923 75.3889C110.516 75.3889 111.067 75.5324 111.576 75.8194C112.094 76.0972 112.511 76.5093 112.826 77.0556C113.15 77.5926 113.312 78.2454 113.312 79.0139V84H110.895V79.3333C110.895 78.8704 110.757 78.4583 110.479 78.0972C110.201 77.7361 109.803 77.5556 109.284 77.5556C108.868 77.5556 108.493 77.6991 108.159 77.9861C107.835 78.2639 107.673 78.7037 107.673 79.3056V84H105.257ZM119.303 84.2778C118.367 84.2778 117.543 84.0833 116.83 83.6944C116.117 83.3056 115.562 82.7731 115.164 82.0972C114.765 81.412 114.566 80.6296 114.566 79.75C114.566 78.9074 114.761 78.162 115.15 77.5139C115.539 76.8565 116.062 76.338 116.719 75.9583C117.386 75.5787 118.122 75.3889 118.928 75.3889C119.752 75.3889 120.488 75.5787 121.136 75.9583C121.784 76.3287 122.293 76.838 122.664 77.4861C123.043 78.1343 123.233 78.8704 123.233 79.6944V80.5417H118.15C117.918 80.5417 117.696 80.5278 117.483 80.5C117.27 80.4722 117.057 80.4398 116.844 80.4028C116.955 80.9583 117.228 81.412 117.664 81.7639C118.108 82.1065 118.673 82.2778 119.358 82.2778C119.886 82.2778 120.358 82.1713 120.775 81.9583C121.201 81.7454 121.548 81.4815 121.816 81.1667L122.344 83.3333C121.928 83.6481 121.455 83.8843 120.928 84.0417C120.409 84.1991 119.867 84.2778 119.303 84.2778ZM116.789 78.9444C117.252 78.8426 117.705 78.7917 118.15 78.7917H119.622C119.881 78.7917 120.127 78.8009 120.358 78.8194C120.59 78.838 120.807 78.8704 121.011 78.9167C120.872 78.4167 120.617 78.0231 120.247 77.7361C119.886 77.4491 119.437 77.3056 118.9 77.3056C118.39 77.3056 117.946 77.4537 117.566 77.75C117.196 78.037 116.937 78.4352 116.789 78.9444ZM124.573 84V75.6667H126.74V76.5833C127.036 76.1944 127.402 75.8981 127.837 75.6944C128.272 75.4907 128.74 75.3889 129.24 75.3889C129.832 75.3889 130.383 75.5324 130.892 75.8194C131.411 76.0972 131.828 76.5093 132.142 77.0556C132.466 77.5926 132.628 78.2454 132.628 79.0139V84H130.212V79.3333C130.212 78.8704 130.073 78.4583 129.795 78.0972C129.517 77.7361 129.119 77.5556 128.601 77.5556C128.184 77.5556 127.809 77.6991 127.476 77.9861C127.152 78.2639 126.99 78.7037 126.99 79.3056V84H124.573ZM138.251 88.1667L141.029 82.5833L137.626 75.6667H140.293L141.765 78.7222C141.895 79 142.006 79.2546 142.099 79.4861C142.2 79.7083 142.284 79.9259 142.349 80.1389C142.423 79.9259 142.511 79.7083 142.612 79.4861C142.714 79.2546 142.835 79 142.974 78.7222L144.474 75.6667H147.043L140.849 88.1667H138.251ZM151.723 84.2778C150.899 84.2778 150.144 84.0787 149.459 83.6806C148.774 83.2824 148.227 82.7454 147.82 82.0694C147.422 81.3935 147.223 80.6481 147.223 79.8333C147.223 79.0093 147.422 78.2639 147.82 77.5972C148.227 76.9213 148.774 76.3843 149.459 75.9861C150.144 75.588 150.899 75.3889 151.723 75.3889C152.556 75.3889 153.311 75.588 153.987 75.9861C154.672 76.3843 155.213 76.9213 155.612 77.5972C156.019 78.2639 156.223 79.0093 156.223 79.8333C156.223 80.6481 156.019 81.3935 155.612 82.0694C155.213 82.7454 154.672 83.2824 153.987 83.6806C153.311 84.0787 152.556 84.2778 151.723 84.2778ZM151.723 82.1111C152.139 82.1111 152.514 82.0093 152.848 81.8056C153.19 81.6019 153.459 81.3287 153.653 80.9861C153.857 80.6343 153.959 80.25 153.959 79.8333C153.959 79.4074 153.857 79.0231 153.653 78.6806C153.459 78.338 153.19 78.0648 152.848 77.8611C152.514 77.6574 152.139 77.5556 151.723 77.5556C151.306 77.5556 150.926 77.6574 150.584 77.8611C150.25 78.0648 149.982 78.338 149.778 78.6806C149.584 79.0231 149.487 79.4074 149.487 79.8333C149.487 80.25 149.584 80.6343 149.778 80.9861C149.982 81.3287 150.25 81.6019 150.584 81.8056C150.926 82.0093 151.306 82.1111 151.723 82.1111ZM160.862 84.2778C160.278 84.2778 159.727 84.1389 159.209 83.8611C158.69 83.5741 158.269 83.162 157.945 82.625C157.63 82.0787 157.473 81.4213 157.473 80.6528V75.6667H159.889V80.3333C159.889 80.7963 160.028 81.2083 160.306 81.5694C160.593 81.9306 160.991 82.1111 161.5 82.1111C161.917 82.1111 162.287 81.963 162.612 81.6667C162.945 81.3611 163.112 80.9259 163.112 80.3611V75.6667H165.528V84H163.334V83.125C163.037 83.4954 162.672 83.7824 162.237 83.9861C161.811 84.1806 161.352 84.2778 160.862 84.2778ZM175.276 84.2222C174.508 84.2222 173.808 84.0231 173.179 83.625C172.549 83.2269 172.045 82.6991 171.665 82.0417C171.295 81.375 171.109 80.6389 171.109 79.8333C171.109 79.0278 171.295 78.2917 171.665 77.625C172.045 76.9583 172.549 76.4306 173.179 76.0417C173.808 75.6435 174.508 75.4444 175.276 75.4444C175.813 75.4444 176.304 75.5417 176.748 75.7361C177.193 75.9213 177.572 76.1806 177.887 76.5139V75.6667H179.97V84H177.887V83.1528C177.572 83.4861 177.193 83.75 176.748 83.9444C176.304 84.1296 175.813 84.2222 175.276 84.2222ZM175.568 82.0972C175.975 82.0972 176.345 81.9954 176.679 81.7917C177.012 81.588 177.276 81.3148 177.47 80.9722C177.674 80.6296 177.776 80.25 177.776 79.8333C177.776 79.4167 177.674 79.037 177.47 78.6944C177.276 78.3519 177.012 78.0787 176.679 77.875C176.345 77.6713 175.975 77.5694 175.568 77.5694C175.16 77.5694 174.79 77.6713 174.457 77.875C174.123 78.0787 173.855 78.3519 173.651 78.6944C173.457 79.037 173.359 79.4167 173.359 79.8333C173.359 80.25 173.457 80.6296 173.651 80.9722C173.855 81.3148 174.123 81.588 174.457 81.7917C174.79 81.9954 175.16 82.0972 175.568 82.0972ZM181.799 84V75.6667H183.966V77.0972C184.253 76.6157 184.614 76.2454 185.049 75.9861C185.494 75.7176 186.012 75.5833 186.605 75.5833L187.133 77.7222C186.957 77.6667 186.758 77.6389 186.536 77.6389C185.841 77.6389 185.281 77.8657 184.855 78.3194C184.429 78.7639 184.216 79.4028 184.216 80.2361V84H181.799ZM192.232 84.2778C191.297 84.2778 190.473 84.0833 189.76 83.6944C189.047 83.3056 188.491 82.7731 188.093 82.0972C187.695 81.412 187.496 80.6296 187.496 79.75C187.496 78.9074 187.691 78.162 188.079 77.5139C188.468 76.8565 188.991 76.338 189.649 75.9583C190.316 75.5787 191.052 75.3889 191.857 75.3889C192.681 75.3889 193.417 75.5787 194.066 75.9583C194.714 76.3287 195.223 76.838 195.593 77.4861C195.973 78.1343 196.163 78.8704 196.163 79.6944V80.5417H191.079C190.848 80.5417 190.626 80.5278 190.413 80.5C190.2 80.4722 189.987 80.4398 189.774 80.4028C189.885 80.9583 190.158 81.412 190.593 81.7639C191.038 82.1065 191.603 82.2778 192.288 82.2778C192.816 82.2778 193.288 82.1713 193.704 81.9583C194.13 81.7454 194.478 81.4815 194.746 81.1667L195.274 83.3333C194.857 83.6481 194.385 83.8843 193.857 84.0417C193.339 84.1991 192.797 84.2778 192.232 84.2778ZM189.718 78.9444C190.181 78.8426 190.635 78.7917 191.079 78.7917H192.552C192.811 78.7917 193.056 78.8009 193.288 78.8194C193.519 78.838 193.737 78.8704 193.941 78.9167C193.802 78.4167 193.547 78.0231 193.177 77.7361C192.816 77.4491 192.366 77.3056 191.829 77.3056C191.32 77.3056 190.876 77.4537 190.496 77.75C190.126 78.037 189.866 78.4352 189.718 78.9444ZM199.003 79.4167L198.503 71.5H201.336L200.836 79.4167H199.003ZM199.919 84.2778C199.512 84.2778 199.165 84.1389 198.878 83.8611C198.6 83.5741 198.461 83.2269 198.461 82.8194C198.461 82.412 198.6 82.0694 198.878 81.7917C199.165 81.5046 199.512 81.3611 199.919 81.3611C200.327 81.3611 200.669 81.5046 200.947 81.7917C201.234 82.0694 201.378 82.412 201.378 82.8194C201.378 83.2269 201.234 83.5741 200.947 83.8611C200.669 84.1389 200.327 84.2778 199.919 84.2778Z" fill="white"/>
<defs>
<linearGradient id="paint0_linear_134_46" x1="0" y1="51.5" x2="272" y2="51.5" gradientUnits="userSpaceOnUse">
<stop stop-color="#F68F05"/>
<stop offset="1" stop-color="#F68F05"/>
</linearGradient>
</defs>
</svg>
